<svg id="Capa_1" data-name="Capa 1" xmlns="http://www.w3.org/2000/svg" viewBox="0 0 1125 2436"><defs><style>.cls-1,.cls-2{fill:#ffe5ba;}.cls-1{opacity:0.6;}</style></defs><path class="cls-1" d="M646,0c4.12,24.6,20.13,101.08,88,165,64.31,60.57,136.7,73.61,162,77l218.15,3V0Z"/><path class="cls-2" d="M870,0c-8.76,26.7-25.23,89.44-6,165,25.64,100.72,96.89,154.2,115,167,59,41.73,118.24,50.62,146,53V0Z"/><path class="cls-1" d="M0,1968a299.21,299.21,0,0,1,75,42c61.92,47.6,87.57,106.36,95,125a295.8,295.8,0,0,1,18,150H0Z"/><path class="cls-2" d="M0,2226a292.46,292.46,0,0,1,231-101c116.92,3.95,191.53,78.27,201,88,88.1,90.55,83.12,204.49,82,223H0Z"/></svg>