<svg id="Capa_1" data-name="Capa 1" xmlns="http://www.w3.org/2000/svg" viewBox="0 0 380.59 380.59"><defs><style>.cls-1,.cls-2{fill:none;}.cls-2{stroke:#f18318;stroke-linecap:round;stroke-linejoin:round;stroke-width:10px;}</style></defs><path class="cls-1" d="M-49.25-50.55H331.34V330H-49.25Z" transform="translate(49.25 50.55)"/><path class="cls-2" d="M14.18,76.31V44.59A31.72,31.72,0,0,1,45.9,12.88H77.61" transform="translate(49.25 50.55)"/><path class="cls-2" d="M14.18,203.17v31.72A31.72,31.72,0,0,0,45.9,266.61H77.61" transform="translate(49.25 50.55)"/><path class="cls-2" d="M204.48,12.88h31.71a31.72,31.72,0,0,1,31.72,31.71V76.31" transform="translate(49.25 50.55)"/><path class="cls-2" d="M204.48,266.61h31.71a31.72,31.72,0,0,0,31.72-31.72V203.17" transform="translate(49.25 50.55)"/><line class="cls-2" x1="142.72" y1="158.58" x2="142.88" y2="158.58"/><line class="cls-2" x1="237.87" y1="158.58" x2="238.03" y2="158.58"/><path class="cls-2" d="M101.4,187.32a55.51,55.51,0,0,0,78.49.8c.27-.27.54-.53.8-.8" transform="translate(49.25 50.55)"/></svg>